<svg width="71" height="80" viewBox="0 0 71 80" fill="none" xmlns="http://www.w3.org/2000/svg">
<path fill-rule="evenodd" clip-rule="evenodd" d="M68.1193 39.2169C67.2327 39.6658 64.0854 41.0652 62.0374 40.0002C61.2927 39.613 61.1509 38.9352 60.9824 37.8703C60.814 36.8053 60.5835 35.3091 58.9344 34.7986L58.4025 36.4885C58.9167 36.6469 59.0408 36.9813 59.2181 38.1431C59.3954 39.3049 59.626 40.7835 61.2041 41.5669C62.0274 41.9808 62.9411 42.1864 63.8638 42.1654C65.1451 42.1354 66.4101 41.8729 67.5962 41.3908L67.7647 41.3292C67.8799 57.7702 61.2573 60.8507 59.9983 61.2908C58.8901 60.6835 55.7605 58.2719 57.7553 51.6093C57.7553 51.6093 58.5887 48.8192 60.415 48.0007L59.688 46.39C58.2468 47.142 57.1173 48.3724 56.4963 49.8666C51.2478 51.7413 45.4851 47.2262 45.4319 47.147L44.368 48.432C44.5897 48.608 48.8541 52.0141 53.8012 52.0141C54.4918 52.0139 55.1808 51.9461 55.858 51.8117C55.1685 54.0819 55.1685 56.5034 55.858 58.7736C53.5441 59.6537 50.0421 60.5339 48.6413 59.5745L47.6218 61.018C48.4861 61.5533 49.4944 61.8143 50.512 61.7661C52.6081 61.6566 54.6691 61.186 56.6027 60.3755H56.6471C57.2756 61.3142 58.1013 62.1068 59.0674 62.699C58.4025 66.5012 56.9042 69.2825 54.6346 70.9635C52.8271 72.2326 50.6385 72.8533 48.4286 72.7238L46.1412 69.1152L44.5986 69.9954L46.7352 73.6744C46.2487 75.2619 45.0757 76.5522 43.5347 77.1949C40.4671 78.2951 36.6815 76.0684 36.646 76.0507L36.4598 75.9451V75.8395C39.3057 66.0524 36.2648 62.7782 34.9527 61.2028C37.045 58.712 39.4476 53.8184 36.38 49.453C34.2949 46.5605 33.664 42.8774 34.669 39.4634C35.1477 38.7153 37.5414 34.5346 35.8392 27.7927C36.2914 27.9071 36.8322 28.0216 37.3464 28.092C39.5983 28.7873 42.3112 30.0019 43.0559 31.7974C43.4992 32.8535 43.2155 34.0505 42.1693 35.4499C40.2721 38.0903 40.6178 39.7978 41.2828 40.7836C42.1693 42.1742 44.0046 42.7287 45.822 42.7287C46.3601 42.7296 46.8972 42.6824 47.4267 42.5879C50.0864 42.1126 51.9482 40.6076 52.3472 38.68L50.574 38.328C50.2726 39.7802 48.5704 40.5899 47.0721 40.854C45.1659 41.1972 43.3485 40.7748 42.7545 39.8418C42.1605 38.9089 43.0204 37.307 43.641 36.4797C45.0241 34.5698 45.4142 32.7655 44.6961 31.1196C44.06 29.796 43.0127 28.71 41.7083 28.0216C44.7661 27.5663 47.317 25.4645 48.331 22.5647L46.6643 21.9398C44.8911 26.5605 40.4583 26.719 37.5946 26.2965C36.8128 26.0688 36.0197 25.8808 35.2186 25.7332C33.8976 21.6054 34.2256 19.1322 34.7221 17.812L34.8285 17.5919C35.5569 16.5449 36.1525 15.4127 36.6017 14.221C38.4722 16.1259 41.0157 17.2337 43.6942 17.3103C46.173 17.2336 48.5469 16.2996 50.4056 14.6699L49.1733 13.3937C48.9427 13.6137 43.2687 18.5073 37.0981 12.2671C37.7057 9.60021 37.524 6.81584 36.5751 4.24903L36.4953 4.04659L36.7435 3.89697C39.1461 2.38314 41.1764 1.92546 42.6569 2.52396C44.6429 3.30728 45.3167 5.72766 45.3167 5.74527L45.5029 6.5022L46.283 6.41419C52.3472 5.72767 55.0069 8.00723 58.0035 10.6477C58.5 11.0789 59.0053 11.5278 59.5196 11.9502C61.063 13.1341 62.1113 14.8425 62.463 16.747C60.1756 16.1045 56.3722 15.6468 54.4838 18.5073L55.9733 19.4754C57.2943 17.4775 60.8228 18.0848 62.658 18.5953L62.9861 18.7273C65.2025 19.8627 66.4348 21.1829 66.6476 22.6527C66.9668 24.8355 64.9631 26.7894 64.9454 26.807L64.0588 27.6431L65.1227 28.224C66.9497 29.1046 68.327 30.6982 68.9261 32.6247C69.7151 35.3179 68.6335 38.108 68.1193 39.217L68.1193 39.2169ZM34.2518 75.6725V75.7517L34.0479 75.8397C31.796 76.8079 29.8899 76.9487 28.3916 76.2534C27.2277 75.5972 26.3615 74.5231 25.9713 73.2521L28.0104 70.1628L26.5209 69.1946L24.4729 72.3015L24.2956 72.5216C18.524 73.0761 15.9707 70.8493 13.0273 68.2705C12.5308 67.8392 12.0255 67.3904 11.5112 66.9679C9.93433 65.7551 8.87932 63.9937 8.55896 62.0391H8.61215C9.69753 62.3766 10.8262 62.5575 11.9634 62.576C13.7693 62.7001 15.5076 61.8707 16.5381 60.3932L15.0487 59.4251C13.2755 62.0655 8.30186 60.138 7.18477 59.6627C5.50915 58.6418 4.52505 57.48 4.37434 56.2214C4.05516 54.0386 6.05883 52.0847 6.07655 52.0671L6.96313 51.231L5.89925 50.6501C4.0722 49.7695 2.69496 48.176 2.09585 46.2494C1.33339 43.609 2.40614 40.8102 2.92036 39.6924L3.04449 39.622C4.64919 38.8562 7.76106 37.8617 8.83381 38.7418C10.3321 40.0532 12.3801 41.6815 13.8784 41.9719L14.2242 40.2117C13.9227 40.1501 12.717 39.7716 10.0041 37.3952C8.31959 35.9254 5.30523 36.7615 3.47891 37.4832L3.27499 37.5712C3.14201 21.1831 9.72037 18.041 11.0236 17.5833L11.2541 17.7065C12.4156 18.3666 15.2437 20.7254 13.2844 27.3C13.2844 27.3 12.451 30.0901 10.6247 30.9086L11.2719 32.5897C12.7115 31.8399 13.8409 30.6128 14.4635 29.1219C19.7209 27.2296 25.4659 31.7624 25.5191 31.8328L26.6362 30.4949C26.3879 30.2925 20.9266 25.9358 15.1728 27.1152C16.9459 20.3205 13.9227 17.4337 12.2826 16.3863L12.0254 16.2191C12.6904 12.4169 14.1887 9.64447 16.4583 7.96341C18.3904 6.58984 20.7612 5.9639 23.1253 6.20313L23.8612 6.31754L24.1094 5.62223C24.8187 3.60671 25.8826 2.36572 27.2833 1.95205C30.1204 1.07191 33.578 3.71233 33.6135 3.71233C33.7653 3.84765 33.8993 4.00142 34.0124 4.17C36.0074 7.63006 36.0444 11.8716 34.11 15.3654C33.9456 15.6626 33.7396 15.9352 33.4982 16.1751C31.0192 15.4394 28.3874 15.3726 25.8737 15.9815V15.911C24.8275 14.1508 22.3274 13.5875 20.7404 13.5875V15.3478C20.7404 15.3478 23.1785 15.3478 24.1715 16.5711C22.6058 17.3216 21.2575 18.4542 20.2528 19.8629L21.6979 20.9014C25.1556 16.1663 30.7144 17.1608 32.8244 17.7593V17.8033C32.3368 19.5636 32.2215 22.4241 33.6312 26.6047C36.1225 34.0155 33.2322 38.3106 33.1081 38.4778L33.0017 38.6802C31.7519 42.6606 32.4507 46.9923 34.8901 50.3861C37.7981 54.5315 34.4469 58.9674 33.3741 60.1996L33.2766 60.2876C33.2056 60.2876 32.9131 60.2084 32.452 60.1292C30.147 59.6363 25.8825 58.2721 24.9073 55.9486C24.464 54.8924 24.7477 53.6954 25.7939 52.296C27.7 49.6556 27.3454 47.9481 26.6805 46.9623C25.5279 45.1581 22.7618 44.7532 20.5365 45.2021C17.8768 45.6773 16.015 47.1824 15.616 49.1099L17.3892 49.4619C17.6906 48.0097 19.3928 47.2 20.8911 46.9359C22.7973 46.5927 24.6148 47.0151 25.2088 47.9481C25.8028 48.881 24.9428 50.4829 24.3222 51.3102C22.9391 53.2201 22.549 55.0244 23.2672 56.6702C24.027 58.165 25.2781 59.3573 26.8135 60.05C23.9232 60.4461 20.9 61.7486 19.6322 65.2076L21.3078 65.8061C23.1342 60.8069 30.5016 61.4054 32.585 61.7927L33.2145 61.9159C33.2145 61.9159 37.4967 64.4155 34.2518 75.6724L34.2518 75.6725ZM70.6721 32.1669C70.0668 30.1496 68.7393 28.4217 66.9397 27.3086C68.0546 25.9573 68.5896 24.2249 68.4291 22.4854C68.1454 20.5403 66.7624 18.8681 64.3065 17.495C64.1595 14.7741 62.826 12.2518 60.6539 10.586C60.1485 10.1723 59.6609 9.70583 59.1733 9.31856C56.221 6.73975 53.1712 4.03773 46.7613 4.61862C46.1786 2.97759 44.9547 1.63877 43.3657 0.90443C41.3443 0.0946961 38.9329 0.552375 36.0869 2.25984L34.5 2.11902C33.6134 1.49412 30.0671 -0.732637 26.7957 0.244318C25.0225 0.781207 23.6129 2.17182 22.6908 4.38097C20.1045 4.25624 17.5516 5.0038 15.4475 6.5021C12.7258 8.48241 11.0147 11.6861 10.2434 16.034C8.07126 16.8349 1.08508 20.7956 1.4663 38.5391C0.978683 39.4721 -0.705807 43.0807 0.331487 46.7332C0.92719 48.7669 2.25574 50.5118 4.06396 51.6356C2.94901 52.9869 2.41403 54.7193 2.57452 56.4588C2.85822 58.4039 4.24128 60.0762 6.69708 61.4492C6.85207 64.1561 8.18121 66.6634 10.3409 68.323C10.8462 68.7367 11.3339 69.2032 11.8215 69.5904C14.7738 72.1781 17.8324 74.8713 24.2335 74.2904C24.9027 75.8189 26.0922 77.0651 27.5936 77.811C29.5263 78.6911 31.8669 78.6207 34.5354 77.5117L35.9008 77.6085C37.6617 78.5961 39.6338 79.1541 41.6546 79.2368C44.6788 79.2928 47.3832 77.3766 48.3128 74.5192C50.8993 74.6454 53.4526 73.8977 55.5561 72.3981C58.2779 70.4178 59.9889 67.2141 60.7603 62.8662C62.9324 62.0653 69.9185 58.1046 69.5373 40.361C70.0249 39.4281 71.7005 35.8195 70.6721 32.1669H70.6721Z" fill="#1466CF"/>
</svg>
