<svg width="44" height="31" viewBox="0 0 44 31" fill="none" xmlns="http://www.w3.org/2000/svg">
<path d="M16.9525 11.7111C16.9525 14.237 16.3899 16.5525 15.2646 18.6574C14.1782 20.7241 12.8589 22.5228 11.3068 24.0537C9.75468 25.6228 8.04738 27.0389 6.18487 28.3019C5.12505 28.9987 4.1846 29.5903 3.36349 30.0765C2.4457 30.62 1.28259 30.2801 0.744503 29.3591C0.1819 28.3962 0.511324 27.1616 1.46412 26.582C2.42814 25.9956 3.36148 25.4016 4.26415 24.8C5.73864 23.8049 6.86391 22.8673 7.63996 21.987C8.68762 20.8389 9.52187 19.6525 10.1427 18.4278C10.4524 17.7977 10.7042 17.0723 10.8981 16.2517C11.2446 14.7848 10.0202 13.4907 8.51301 13.4907C6.06846 13.4907 4.16714 12.8784 2.80906 11.6537C1.45098 10.429 0.771937 8.72593 0.771937 6.54444C0.771937 4.97531 1.39278 3.50185 2.63445 2.12407C3.87613 0.708025 5.56403 0 7.69816 0C10.9964 0 13.3633 1.09074 14.799 3.27222C16.2347 5.41543 16.9525 8.2284 16.9525 11.7111Z" fill="#F0F9FF"/>
<path d="M43.959 11.7111C43.959 14.237 43.3963 16.5525 42.2711 18.6574C41.1846 20.7241 39.8653 22.5228 38.3132 24.0537C36.7611 25.6228 35.0538 27.0389 33.1913 28.3019C32.1315 28.9987 31.191 29.5903 30.3699 30.0765C29.4521 30.62 28.289 30.2801 27.7509 29.3591C27.1883 28.3962 27.5178 27.1616 28.4706 26.582C29.4346 25.9956 30.3679 25.4016 31.2706 24.8C32.7451 23.8049 33.8704 22.8673 34.6464 21.987C35.6941 20.8389 36.5283 19.6525 37.1492 18.4278C37.4589 17.7977 37.7107 17.0723 37.9045 16.2517C38.251 14.7848 37.0267 13.4907 35.5195 13.4907C33.0749 13.4907 31.1736 12.8784 29.8155 11.6537C28.4574 10.429 27.7784 8.72593 27.7784 6.54444C27.7784 4.97531 28.3992 3.50185 29.6409 2.12407C30.8826 0.708025 32.5705 0 34.7046 0C38.0028 0 40.3697 1.09074 41.8054 3.27222C43.2411 5.41543 43.959 8.2284 43.959 11.7111Z" fill="#F0F9FF"/>
</svg>
