<svg width="45" height="45" viewBox="0 0 45 45" fill="none" xmlns="http://www.w3.org/2000/svg">
<path d="M0 22.5C0 10.0736 10.0736 0 22.5 0C34.9264 0 45 10.0736 45 22.5C45 34.9264 34.9264 45 22.5 45C10.0736 45 0 34.9264 0 22.5Z" fill="#1971C2"/>
<path fill-rule="evenodd" clip-rule="evenodd" d="M10.1848 22.2625C16.744 19.4048 21.1178 17.5208 23.3063 16.6105C29.5548 14.0115 30.8532 13.5601 31.6994 13.5452C31.8855 13.5419 32.3017 13.588 32.5713 13.8068C32.7989 13.9915 32.8616 14.241 32.8915 14.4161C32.9215 14.5912 32.9588 14.9901 32.9291 15.3018C32.5905 18.8596 31.1254 27.4934 30.38 31.4782C30.0646 33.1643 29.4436 33.7296 28.8423 33.785C27.5357 33.9052 26.5435 32.9215 25.278 32.0919C23.2977 30.7938 22.179 29.9857 20.2568 28.719C18.0353 27.2551 19.4754 26.4505 20.7414 25.1356C21.0727 24.7915 26.8297 19.5551 26.9411 19.08C26.955 19.0206 26.968 18.7992 26.8364 18.6822C26.7049 18.5653 26.5107 18.6053 26.3706 18.6371C26.1719 18.6822 23.0084 20.7731 16.8799 24.91C15.982 25.5266 15.1686 25.8271 14.4399 25.8113C13.6365 25.794 12.0912 25.3571 10.9424 24.9837C9.5333 24.5256 8.41341 24.2835 8.51092 23.5056C8.56172 23.1004 9.11967 22.6861 10.1848 22.2625Z" fill="white"/>
</svg>
